<?xml version="1.0" encoding="UTF-8" standalone="no"?>
<!-- Created with Inkscape (http://www.inkscape.org/) -->

<svg
   width="298.96771mm"
   height="87.5466mm"
   viewBox="0 0 298.96771 87.5466"
   version="1.1"
   id="svg1"
   xml:space="preserve"
   inkscape:version="1.3 (0e150ed, 2023-07-21)"
   sodipodi:docname="drawing.svg"
   xmlns:inkscape="http://www.inkscape.org/namespaces/inkscape"
   xmlns:sodipodi="http://sodipodi.sourceforge.net/DTD/sodipodi-0.dtd"
   xmlns="http://www.w3.org/2000/svg"
   xmlns:svg="http://www.w3.org/2000/svg"><sodipodi:namedview
     id="namedview1"
     pagecolor="#ffffff"
     bordercolor="#000000"
     borderopacity="0.25"
     inkscape:showpageshadow="2"
     inkscape:pageopacity="0.0"
     inkscape:pagecheckerboard="0"
     inkscape:deskcolor="#d1d1d1"
     inkscape:document-units="mm"
     inkscape:zoom="0.50709218"
     inkscape:cx="457.51051"
     inkscape:cy="685.27975"
     inkscape:window-width="1920"
     inkscape:window-height="1011"
     inkscape:window-x="0"
     inkscape:window-y="0"
     inkscape:window-maximized="1"
     inkscape:current-layer="layer1"
     showgrid="false" /><defs
     id="defs1" /><g
     inkscape:label="Layer 1"
     inkscape:groupmode="layer"
     id="layer1"
     transform="translate(38.64634,-25.474517)"><rect
       style="fill:#ffffff;fill-opacity:1;stroke-width:0.277078"
       id="rect3"
       width="298.96771"
       height="87.546593"
       x="-38.646339"
       y="25.474518"
       inkscape:export-filename="./rect3.png"
       inkscape:export-xdpi="96"
       inkscape:export-ydpi="96" /><g
       id="g2"
       transform="matrix(0.35592088,0,0,0.35592088,-28.879856,26.27347)"
       inkscape:export-filename="g2.svg"
       inkscape:export-xdpi="96"
       inkscape:export-ydpi="96"><rect
         style="fill:#efc81a;fill-opacity:1;stroke-width:0.264583"
         id="rect2"
         width="155.03435"
         height="155.03435"
         x="23.00856"
         y="43.224102"
         ry="77.517174" /><g
         style="fill:#f9f9f9"
         id="g1"
         transform="matrix(0.63568513,0,0,0.63568513,42.678419,62.893929)"><g
           id="Group"
           clip-path="url(#clipPath1)"
           style="fill:#f9f9f9"><path
             id="Vector"
             d="m 74.3169,41.9465 c 2.9447,0 5.332,-2.3873 5.332,-5.3319 0,-3.4779 0.7191,-4.4543 2.1523,-6.4005 4.0047,-5.4382 6.4499,-9.9832 6.4499,-17.0445 0,-3.97902 -1.2676,-7.41208 -2.372,-9.95791 C 84.7071,0.510172 81.5663,-0.73075 78.8658,0.442279 76.1643,1.61424 74.9244,4.75405 76.096,7.45557 c 0.6943,1.60029 1.4912,3.69613 1.4912,5.71373 0,4.4571 -1.6383,7.0062 -4.3729,10.7211 -1.8843,2.559 -4.2289,5.7432 -4.2289,12.7238 -4e-4,2.945 2.3869,5.3323 5.3315,5.3323 z"
             fill="#ffffff"
             style="fill:#f9f9f9" /><path
             id="Vector_2"
             d="m 99.0807,41.9464 c 2.9443,0 5.3323,-2.3872 5.3323,-5.3319 0,-3.4775 0.719,-4.4543 2.152,-6.4005 4.011,-5.4471 6.45,-9.9974 6.45,-17.0444 0,-3.97873 -1.268,-7.41144 -2.372,-9.95762 -1.171,-2.701877 -4.312,-3.941732 -7.013,-2.770126 -2.702,1.171966 -3.9414,4.311766 -2.77,7.013286 0.694,1.60065 1.491,3.69646 1.491,5.71406 0,4.4536 -1.634,7.0001 -4.3725,10.7215 -1.8844,2.5586 -4.229,5.7429 -4.229,12.7234 -7e-4,2.9451 2.3866,5.3323 5.3312,5.3323 z"
             fill="#ffffff"
             style="fill:#f9f9f9" /><path
             id="Vector_3"
             d="m 123.088,148.606 -5.353,-18.864 c -3.273,1.449 -6.645,2.627 -10.084,3.529 l 5.18,18.254 c -4.38,3.015 -7.258,8.06 -7.258,13.767 0,9.212 7.495,16.707 16.707,16.707 9.212,0 16.707,-7.495 16.707,-16.707 0,-8.941 -7.061,-16.263 -15.899,-16.686 z"
             fill="#ffffff"
             style="fill:#f9f9f9" /><path
             id="Vector_4"
             d="m 90.9997,124.769 c 20.6783,0 38.9133,-11.514 49.5053,-28.9194 H 41.4937 c 10.5928,17.4054 28.8277,28.9194 49.506,28.9194 z"
             fill="#ffffff"
             style="fill:#f9f9f9" /><path
             id="Vector_5"
             d="M 159.249,51.5439 H 22.7509 c -2.9447,0 -5.332,2.3873 -5.332,5.332 0,2.9446 2.3873,5.3319 5.332,5.3319 h 9.0529 c 0.1646,8.1185 1.7358,15.869 4.4593,22.9779 H 145.737 c 2.723,-7.1089 4.294,-14.8594 4.459,-22.9779 h 9.053 c 2.944,0 5.332,-2.3873 5.332,-5.3319 0,-2.9447 -2.388,-5.332 -5.332,-5.332 z"
             fill="#ffffff"
             style="fill:#f9f9f9" /><path
             id="Vector_6"
             d="m 54.5326,175.429 c -0.7984,3.345 1.7378,6.571 5.1908,6.571 2.4111,0 4.5976,-1.647 5.1819,-4.096 l 10.5829,-44.338 c -3.4622,-0.842 -6.8597,-1.967 -10.1613,-3.36 z"
             fill="#ffffff"
             style="fill:#f9f9f9" /><path
             id="Vector_7"
             d="m 85.668,135.206 v 41.461 c 0,2.945 2.3873,5.332 5.3319,5.332 2.9447,0 5.332,-2.387 5.332,-5.332 v -41.461 c -3.6912,0.302 -6.9653,0.303 -10.6639,0 z"
             fill="#ffffff"
             style="fill:#f9f9f9" /></g></g></g><path
       style="-inkscape-font-specification:'Montserrat Heavy';stroke-width:0.264583"
       d="m 52.094464,77.210709 v -17.78 h 4.9276 l 7.111999,11.6078 h -2.590799 l 6.908799,-11.6078 h 4.9276 l 0.0508,17.78 h -5.461 l -0.0508,-9.5504 h 0.8636 l -4.7244,7.9502 h -2.641599 l -4.9276,-7.9502 h 1.0668 v 9.5504 z m 32.461163,0 v -2.4638 l -0.4064,-0.6604 v -4.6736 q 0,-1.016 -0.635,-1.5494 -0.6096,-0.5334 -2.0066,-0.5334 -0.9398,0 -1.905,0.3048 -0.9652,0.2794 -1.651,0.7874 l -1.8288,-3.7846 q 1.2192,-0.762 2.921,-1.1684 1.7018,-0.4064 3.3274,-0.4064 3.5814,0 5.5372,1.6002 1.9812,1.6002 1.9812,5.08 v 7.4676 z m -3.937,0.254 q -1.7018,0 -2.8448,-0.5842 -1.143,-0.5842 -1.7272,-1.5494 -0.5842,-0.9906 -0.5842,-2.1844 0,-1.3462 0.6858,-2.286 0.6858,-0.9398 2.0828,-1.4224 1.4224,-0.4826 3.5814,-0.4826 h 2.8956 v 2.7686 h -1.9812 q -0.9144,0 -1.3462,0.3048 -0.4064,0.2794 -0.4064,0.8636 0,0.4826 0.3556,0.8128 0.381,0.3048 1.016,0.3048 0.5842,0 1.0668,-0.3048 0.508,-0.3302 0.7366,-1.016 l 0.7366,1.7018 q -0.3302,1.5494 -1.397,2.3114 -1.0668,0.762 -2.8702,0.762 z m 30.149803,-14.4018 q 1.5748,0 2.8194,0.6604 1.27,0.635 1.9812,2.0066 0.7366,1.3716 0.7366,3.556 v 7.9248 h -5.7404 v -6.9342 q 0,-1.2954 -0.4318,-1.8288 -0.4318,-0.5588 -1.1176,-0.5588 -0.508,0 -0.9144,0.254 -0.4064,0.254 -0.6604,0.8128 -0.2286,0.5334 -0.2286,1.4732 v 6.7818 h -5.7404 v -6.9342 q 0,-1.2954 -0.4064,-1.8288 -0.4064,-0.5588 -1.143004,-0.5588 -0.508,0 -0.9144,0.254 -0.4064,0.254 -0.6604,0.8128 -0.2286,0.5334 -0.2286,1.4732 v 6.7818 h -5.7404 v -13.8938 h 5.461 v 3.9878 l -1.1176,-1.1176 q 0.7874,-1.5748 2.1082,-2.3368 1.320804,-0.7874 2.946404,-0.7874 1.8288,0 3.2258,0.9652 1.4224,0.9398 1.905,2.9972 l -1.7526,-0.2794 q 0.762,-1.7272 2.2098,-2.6924 1.4732,-0.9906 3.4036,-0.9906 z m 16.43377,14.1478 v -2.4638 l -0.4064,-0.6604 v -4.6736 q 0,-1.016 -0.635,-1.5494 -0.6096,-0.5334 -2.0066,-0.5334 -0.9398,0 -1.905,0.3048 -0.9652,0.2794 -1.651,0.7874 l -1.8288,-3.7846 q 1.2192,-0.762 2.921,-1.1684 1.7018,-0.4064 3.3274,-0.4064 3.5814,0 5.5372,1.6002 1.9812,1.6002 1.9812,5.08 v 7.4676 z m -3.937,0.254 q -1.7018,0 -2.8448,-0.5842 -1.143,-0.5842 -1.7272,-1.5494 -0.5842,-0.9906 -0.5842,-2.1844 0,-1.3462 0.6858,-2.286 0.6858,-0.9398 2.0828,-1.4224 1.4224,-0.4826 3.5814,-0.4826 h 2.8956 v 2.7686 h -1.9812 q -0.9144,0 -1.3462,0.3048 -0.4064,0.2794 -0.4064,0.8636 0,0.4826 0.3556,0.8128 0.381,0.3048 1.016,0.3048 0.5842,0 1.0668,-0.3048 0.508,-0.3302 0.7366,-1.016 l 0.7366,1.7018 q -0.3302,1.5494 -1.397,2.3114 -1.0668,0.762 -2.8702,0.762 z m 19.55798,-0.254 v -17.78 h 8.5598 q 2.4892,0 4.2926,0.8128 1.8288,0.8128 2.8194,2.3368 0.9906,1.4986 0.9906,3.556 0,2.0574 -0.9906,3.556 -0.9906,1.4732 -2.8194,2.2606 -1.8034,0.7874 -4.2926,0.7874 h -5.2324 l 2.667,-2.4638 v 6.9342 z m 10.6426,0 -4.3688,-6.477 h 6.35 l 4.4196,6.477 z m -4.6482,-6.2738 -2.667,-2.7178 h 4.8514 q 1.2446,0 1.8288,-0.5588 0.6096,-0.5588 0.6096,-1.524 0,-0.9652 -0.6096,-1.524 -0.5842,-0.5588 -1.8288,-0.5588 h -4.8514 l 2.667,-2.7178 z m 20.42157,6.5278 q -2.54,0 -4.445,-0.9398 -1.8796,-0.9398 -2.921,-2.5654 -1.0414,-1.651 -1.0414,-3.7084 0,-2.1082 1.016,-3.7338 1.0414,-1.6256 2.8194,-2.54 1.8034,-0.9144 4.0386,-0.9144 2.0574,0 3.7846,0.8128 1.7526,0.8128 2.794,2.413 1.0668,1.6002 1.0668,3.9624 0,0.3048 -0.0254,0.6858 -0.0254,0.3556 -0.0508,0.6604 h -10.6934 v -2.7686 h 7.6454 l -2.159,0.7366 q 0,-0.8128 -0.3048,-1.3716 -0.2794,-0.5842 -0.7874,-0.889 -0.508,-0.3302 -1.2192,-0.3302 -0.7112,0 -1.2446,0.3302 -0.508,0.3048 -0.7874,0.889 -0.2794,0.5588 -0.2794,1.3716 v 0.8636 q 0,0.889 0.3556,1.524 0.3556,0.635 1.016,0.9652 0.6604,0.3048 1.6002,0.3048 0.9652,0 1.5748,-0.254 0.635,-0.254 1.3208,-0.762 l 2.9972,3.0226 q -1.016,1.0922 -2.5146,1.6764 -1.4732,0.5588 -3.556,0.5588 z m 16.383,0 q -2.3876,0 -4.2418,-0.9144 -1.8542,-0.9144 -2.921,-2.54 -1.0414,-1.651 -1.0414,-3.7592 0,-2.1082 1.0414,-3.7338 1.0668,-1.6256 2.921,-2.54 1.8542,-0.9144 4.2418,-0.9144 2.54,0 4.3434,1.0922 1.8034,1.0922 2.4892,3.0226 l -4.445,2.1844 q -0.4318,-0.9652 -1.0668,-1.397 -0.6096,-0.4318 -1.3462,-0.4318 -0.635,0 -1.1938,0.3048 -0.5334,0.3048 -0.8636,0.9144 -0.3048,0.5842 -0.3048,1.4986 0,0.9144 0.3048,1.524 0.3302,0.6096 0.8636,0.9144 0.5588,0.3048 1.1938,0.3048 0.7366,0 1.3462,-0.4318 0.635,-0.4318 1.0668,-1.397 l 4.445,2.1844 q -0.6858,1.9304 -2.4892,3.0226 -1.8034,1.0922 -4.3434,1.0922 z m 8.15339,-0.254 v -13.8938 h 5.7404 v 13.8938 z m 2.8702,-15.0114 q -1.5748,0 -2.5146,-0.8382 -0.9398,-0.8382 -0.9398,-2.0828 0,-1.2446 0.9398,-2.0828 0.9398,-0.8382 2.5146,-0.8382 1.5748,0 2.5146,0.7874 0.9398,0.7874 0.9398,2.032 0,1.3208 -0.9398,2.1844 -0.9398,0.8382 -2.5146,0.8382 z m 14.68116,15.2654 q -1.8034,0 -2.9972,-0.762 -1.1684,-0.7874 -1.7272,-2.3622 -0.5588,-1.6002 -0.5588,-4.064 0,-2.5146 0.508,-4.0894 0.5334,-1.6002 1.7018,-2.3622 1.1684,-0.762 3.0734,-0.762 1.8288,0 3.3528,0.889 1.524,0.8636 2.4384,2.4892 0.9144,1.6002 0.9144,3.8354 0,2.2352 -0.9144,3.8608 -0.9144,1.6002 -2.4384,2.4638 -1.524,0.8636 -3.3528,0.8636 z m -9.271,4.6736 v -18.8214 h 5.461 v 1.8796 l 0.0254,5.08 0.254,5.08 v 6.7818 z m 7.8994,-9.144 q 0.635,0 1.143,-0.3048 0.508,-0.3048 0.8128,-0.9144 0.3048,-0.6096 0.3048,-1.4986 0,-0.9144 -0.3048,-1.524 -0.3048,-0.6096 -0.8128,-0.9144 -0.508,-0.3048 -1.143,-0.3048 -0.635,0 -1.143,0.3048 -0.508,0.3048 -0.8128,0.9144 -0.3048,0.6096 -0.3048,1.524 0,0.889 0.3048,1.4986 0.3048,0.6096 0.8128,0.9144 0.508,0.3048 1.143,0.3048 z m 17.55137,4.4704 q -2.54,0 -4.445,-0.9398 -1.8796,-0.9398 -2.921,-2.5654 -1.0414,-1.651 -1.0414,-3.7084 0,-2.1082 1.016,-3.7338 1.0414,-1.6256 2.8194,-2.54 1.8034,-0.9144 4.0386,-0.9144 2.0574,0 3.7846,0.8128 1.7526,0.8128 2.794,2.413 1.0668,1.6002 1.0668,3.9624 0,0.3048 -0.0254,0.6858 -0.0254,0.3556 -0.0508,0.6604 h -10.6934 v -2.7686 h 7.6454 l -2.159,0.7366 q 0,-0.8128 -0.3048,-1.3716 -0.2794,-0.5842 -0.7874,-0.889 -0.508,-0.3302 -1.2192,-0.3302 -0.7112,0 -1.2446,0.3302 -0.508,0.3048 -0.7874,0.889 -0.2794,0.5588 -0.2794,1.3716 v 0.8636 q 0,0.889 0.3556,1.524 0.3556,0.635 1.016,0.9652 0.6604,0.3048 1.6002,0.3048 0.9652,0 1.5748,-0.254 0.635,-0.254 1.3208,-0.762 l 2.9972,3.0226 q -1.016,1.0922 -2.5146,1.6764 -1.4732,0.5588 -3.556,0.5588 z m 11.5062,0 q -1.4224,0 -2.3876,-0.9144 -0.9652,-0.9398 -0.9652,-2.3876 0,-1.4732 0.9652,-2.3622 0.9652,-0.889 2.3876,-0.889 1.4224,0 2.3876,0.889 0.9652,0.889 0.9652,2.3622 0,1.4478 -0.9652,2.3876 -0.9652,0.9144 -2.3876,0.9144 z"
       id="text1"
       aria-label="Mama Recipe." /></g></svg>
