<?xml version="1.0" encoding="UTF-8" standalone="no"?>
<!-- Created with Inkscape (http://www.inkscape.org/) -->

<svg
   width="135.46667mm"
   height="135.46667mm"
   viewBox="0 0 135.46667 135.46667"
   version="1.1"
   id="svg1"
   xml:space="preserve"
   xmlns:inkscape="http://www.inkscape.org/namespaces/inkscape"
   xmlns:sodipodi="http://sodipodi.sourceforge.net/DTD/sodipodi-0.dtd"
   xmlns="http://www.w3.org/2000/svg"
   xmlns:svg="http://www.w3.org/2000/svg"><sodipodi:namedview
     id="namedview1"
     pagecolor="#ffffff"
     bordercolor="#000000"
     borderopacity="0.25"
     inkscape:showpageshadow="2"
     inkscape:pageopacity="0.0"
     inkscape:pagecheckerboard="0"
     inkscape:deskcolor="#d1d1d1"
     inkscape:document-units="mm" /><defs
     id="defs1" /><g
     inkscape:label="Layer 1"
     inkscape:groupmode="layer"
     id="layer1"
     transform="translate(-16.863547,-23.865777)"><g
       id="g2"
       transform="matrix(0.87378487,0,0,0.87378487,-3.2409861,-13.902789)"><rect
         style="fill:#efc81a;fill-opacity:1;stroke-width:0.264583"
         id="rect2"
         width="155.03435"
         height="155.03435"
         x="23.00856"
         y="43.224102"
         ry="77.517174" /><g
         style="fill:#f9f9f9"
         id="g1"
         transform="matrix(0.63568513,0,0,0.63568513,42.678419,62.893929)"><g
           id="Group"
           clip-path="url(#clipPath1)"
           style="fill:#f9f9f9"><path
             id="Vector"
             d="m 74.3169,41.9465 c 2.9447,0 5.332,-2.3873 5.332,-5.3319 0,-3.4779 0.7191,-4.4543 2.1523,-6.4005 4.0047,-5.4382 6.4499,-9.9832 6.4499,-17.0445 0,-3.97902 -1.2676,-7.41208 -2.372,-9.95791 C 84.7071,0.510172 81.5663,-0.73075 78.8658,0.442279 76.1643,1.61424 74.9244,4.75405 76.096,7.45557 c 0.6943,1.60029 1.4912,3.69613 1.4912,5.71373 0,4.4571 -1.6383,7.0062 -4.3729,10.7211 -1.8843,2.559 -4.2289,5.7432 -4.2289,12.7238 -4e-4,2.945 2.3869,5.3323 5.3315,5.3323 z"
             fill="#ffffff"
             style="fill:#f9f9f9" /><path
             id="Vector_2"
             d="m 99.0807,41.9464 c 2.9443,0 5.3323,-2.3872 5.3323,-5.3319 0,-3.4775 0.719,-4.4543 2.152,-6.4005 4.011,-5.4471 6.45,-9.9974 6.45,-17.0444 0,-3.97873 -1.268,-7.41144 -2.372,-9.95762 -1.171,-2.701877 -4.312,-3.941732 -7.013,-2.770126 -2.702,1.171966 -3.9414,4.311766 -2.77,7.013286 0.694,1.60065 1.491,3.69646 1.491,5.71406 0,4.4536 -1.634,7.0001 -4.3725,10.7215 -1.8844,2.5586 -4.229,5.7429 -4.229,12.7234 -7e-4,2.9451 2.3866,5.3323 5.3312,5.3323 z"
             fill="#ffffff"
             style="fill:#f9f9f9" /><path
             id="Vector_3"
             d="m 123.088,148.606 -5.353,-18.864 c -3.273,1.449 -6.645,2.627 -10.084,3.529 l 5.18,18.254 c -4.38,3.015 -7.258,8.06 -7.258,13.767 0,9.212 7.495,16.707 16.707,16.707 9.212,0 16.707,-7.495 16.707,-16.707 0,-8.941 -7.061,-16.263 -15.899,-16.686 z"
             fill="#ffffff"
             style="fill:#f9f9f9" /><path
             id="Vector_4"
             d="m 90.9997,124.769 c 20.6783,0 38.9133,-11.514 49.5053,-28.9194 H 41.4937 c 10.5928,17.4054 28.8277,28.9194 49.506,28.9194 z"
             fill="#ffffff"
             style="fill:#f9f9f9" /><path
             id="Vector_5"
             d="M 159.249,51.5439 H 22.7509 c -2.9447,0 -5.332,2.3873 -5.332,5.332 0,2.9446 2.3873,5.3319 5.332,5.3319 h 9.0529 c 0.1646,8.1185 1.7358,15.869 4.4593,22.9779 H 145.737 c 2.723,-7.1089 4.294,-14.8594 4.459,-22.9779 h 9.053 c 2.944,0 5.332,-2.3873 5.332,-5.3319 0,-2.9447 -2.388,-5.332 -5.332,-5.332 z"
             fill="#ffffff"
             style="fill:#f9f9f9" /><path
             id="Vector_6"
             d="m 54.5326,175.429 c -0.7984,3.345 1.7378,6.571 5.1908,6.571 2.4111,0 4.5976,-1.647 5.1819,-4.096 l 10.5829,-44.338 c -3.4622,-0.842 -6.8597,-1.967 -10.1613,-3.36 z"
             fill="#ffffff"
             style="fill:#f9f9f9" /><path
             id="Vector_7"
             d="m 85.668,135.206 v 41.461 c 0,2.945 2.3873,5.332 5.3319,5.332 2.9447,0 5.332,-2.387 5.332,-5.332 v -41.461 c -3.6912,0.302 -6.9653,0.303 -10.6639,0 z"
             fill="#ffffff"
             style="fill:#f9f9f9" /></g></g></g></g></svg>
